<mxfile host="Electron" modified="2023-11-25T11:20:59.297Z" agent="Mozilla/5.0 (Windows NT 10.0; Win64; x64) AppleWebKit/537.36 (KHTML, like Gecko) draw.io/22.1.2 Chrome/114.0.5735.289 Electron/25.9.4 Safari/537.36" etag="w536Y4rrx3Ujl0cg8mDK" version="22.1.2" type="device">
  <diagram name="Pagina-1" id="50dvYeyetKUteLjVzN3J">
    <mxGraphModel dx="1418" dy="820" grid="1" gridSize="10" guides="1" tooltips="1" connect="1" arrows="1" fold="1" page="1" pageScale="1" pageWidth="827" pageHeight="1169" math="0" shadow="0">
      <root>
        <mxCell id="0" />
        <mxCell id="1" parent="0" />
        <mxCell id="GOUhQreRWFPhw6_hqKck-6" value="id" style="ellipse;whiteSpace=wrap;html=1;align=center;fontStyle=4;fillColor=#f0a30a;fontColor=#000000;strokeColor=#BD7000;" parent="1" vertex="1">
          <mxGeometry x="220" y="450" width="100" height="40" as="geometry" />
        </mxCell>
        <mxCell id="GOUhQreRWFPhw6_hqKck-7" value="User" style="rounded=1;arcSize=10;whiteSpace=wrap;html=1;align=center;fillColor=#1ba1e2;fontColor=#ffffff;strokeColor=#006EAF;" parent="1" vertex="1">
          <mxGeometry x="180" y="520" width="100" height="40" as="geometry" />
        </mxCell>
        <mxCell id="GOUhQreRWFPhw6_hqKck-8" value="mobile" style="ellipse;whiteSpace=wrap;html=1;align=center;" parent="1" vertex="1">
          <mxGeometry x="20" y="550" width="100" height="40" as="geometry" />
        </mxCell>
        <mxCell id="GOUhQreRWFPhw6_hqKck-9" value="password" style="ellipse;whiteSpace=wrap;html=1;align=center;" parent="1" vertex="1">
          <mxGeometry x="80" y="600" width="100" height="40" as="geometry" />
        </mxCell>
        <mxCell id="GOUhQreRWFPhw6_hqKck-10" value="mail" style="ellipse;whiteSpace=wrap;html=1;align=center;" parent="1" vertex="1">
          <mxGeometry x="20" y="480" width="80" height="40" as="geometry" />
        </mxCell>
        <mxCell id="GOUhQreRWFPhw6_hqKck-11" value="name" style="ellipse;whiteSpace=wrap;html=1;align=center;" parent="1" vertex="1">
          <mxGeometry x="60" y="430" width="100" height="40" as="geometry" />
        </mxCell>
        <mxCell id="GOUhQreRWFPhw6_hqKck-14" value="" style="endArrow=none;html=1;rounded=0;" parent="1" source="GOUhQreRWFPhw6_hqKck-10" target="GOUhQreRWFPhw6_hqKck-7" edge="1">
          <mxGeometry relative="1" as="geometry">
            <mxPoint x="310" y="490" as="sourcePoint" />
            <mxPoint x="470" y="490" as="targetPoint" />
          </mxGeometry>
        </mxCell>
        <mxCell id="GOUhQreRWFPhw6_hqKck-16" value="" style="endArrow=none;html=1;rounded=0;" parent="1" source="GOUhQreRWFPhw6_hqKck-11" target="GOUhQreRWFPhw6_hqKck-7" edge="1">
          <mxGeometry relative="1" as="geometry">
            <mxPoint x="90" y="550" as="sourcePoint" />
            <mxPoint x="190" y="550" as="targetPoint" />
          </mxGeometry>
        </mxCell>
        <mxCell id="GOUhQreRWFPhw6_hqKck-18" value="" style="endArrow=none;html=1;rounded=0;" parent="1" source="GOUhQreRWFPhw6_hqKck-8" target="GOUhQreRWFPhw6_hqKck-7" edge="1">
          <mxGeometry relative="1" as="geometry">
            <mxPoint x="275" y="480" as="sourcePoint" />
            <mxPoint x="250" y="530" as="targetPoint" />
          </mxGeometry>
        </mxCell>
        <mxCell id="GOUhQreRWFPhw6_hqKck-19" value="" style="endArrow=none;html=1;rounded=0;" parent="1" source="GOUhQreRWFPhw6_hqKck-9" target="GOUhQreRWFPhw6_hqKck-7" edge="1">
          <mxGeometry relative="1" as="geometry">
            <mxPoint x="172" y="439" as="sourcePoint" />
            <mxPoint x="228" y="530" as="targetPoint" />
          </mxGeometry>
        </mxCell>
        <mxCell id="GOUhQreRWFPhw6_hqKck-20" value="" style="endArrow=none;html=1;rounded=0;" parent="1" source="GOUhQreRWFPhw6_hqKck-6" target="GOUhQreRWFPhw6_hqKck-7" edge="1">
          <mxGeometry relative="1" as="geometry">
            <mxPoint x="275" y="480" as="sourcePoint" />
            <mxPoint x="250" y="530" as="targetPoint" />
          </mxGeometry>
        </mxCell>
        <mxCell id="ow7-s1mAukbCGRvHwFf_-1" value="id" style="ellipse;whiteSpace=wrap;html=1;align=center;fontStyle=4;fillColor=#f0a30a;fontColor=#000000;strokeColor=#BD7000;" vertex="1" parent="1">
          <mxGeometry x="240" y="80" width="100" height="40" as="geometry" />
        </mxCell>
        <mxCell id="ow7-s1mAukbCGRvHwFf_-2" value="User" style="rounded=1;arcSize=10;whiteSpace=wrap;html=1;align=center;fillColor=#1ba1e2;fontColor=#ffffff;strokeColor=#006EAF;" vertex="1" parent="1">
          <mxGeometry x="200" y="150" width="100" height="40" as="geometry" />
        </mxCell>
        <mxCell id="ow7-s1mAukbCGRvHwFf_-3" value="surname" style="ellipse;whiteSpace=wrap;html=1;align=center;" vertex="1" parent="1">
          <mxGeometry x="30" y="120" width="100" height="40" as="geometry" />
        </mxCell>
        <mxCell id="ow7-s1mAukbCGRvHwFf_-4" value="password" style="ellipse;whiteSpace=wrap;html=1;align=center;" vertex="1" parent="1">
          <mxGeometry x="100" y="230" width="100" height="40" as="geometry" />
        </mxCell>
        <mxCell id="ow7-s1mAukbCGRvHwFf_-5" value="mail" style="ellipse;whiteSpace=wrap;html=1;align=center;" vertex="1" parent="1">
          <mxGeometry x="40" y="180" width="80" height="40" as="geometry" />
        </mxCell>
        <mxCell id="ow7-s1mAukbCGRvHwFf_-6" value="name" style="ellipse;whiteSpace=wrap;html=1;align=center;" vertex="1" parent="1">
          <mxGeometry x="80" y="60" width="100" height="40" as="geometry" />
        </mxCell>
        <mxCell id="ow7-s1mAukbCGRvHwFf_-7" value="" style="endArrow=none;html=1;rounded=0;" edge="1" parent="1" source="ow7-s1mAukbCGRvHwFf_-5" target="ow7-s1mAukbCGRvHwFf_-2">
          <mxGeometry relative="1" as="geometry">
            <mxPoint x="330" y="120" as="sourcePoint" />
            <mxPoint x="490" y="120" as="targetPoint" />
          </mxGeometry>
        </mxCell>
        <mxCell id="ow7-s1mAukbCGRvHwFf_-8" value="" style="endArrow=none;html=1;rounded=0;" edge="1" parent="1" source="ow7-s1mAukbCGRvHwFf_-6" target="ow7-s1mAukbCGRvHwFf_-2">
          <mxGeometry relative="1" as="geometry">
            <mxPoint x="110" y="180" as="sourcePoint" />
            <mxPoint x="210" y="180" as="targetPoint" />
          </mxGeometry>
        </mxCell>
        <mxCell id="ow7-s1mAukbCGRvHwFf_-9" value="" style="endArrow=none;html=1;rounded=0;" edge="1" parent="1" source="ow7-s1mAukbCGRvHwFf_-3" target="ow7-s1mAukbCGRvHwFf_-2">
          <mxGeometry relative="1" as="geometry">
            <mxPoint x="295" y="110" as="sourcePoint" />
            <mxPoint x="270" y="160" as="targetPoint" />
          </mxGeometry>
        </mxCell>
        <mxCell id="ow7-s1mAukbCGRvHwFf_-10" value="" style="endArrow=none;html=1;rounded=0;" edge="1" parent="1" source="ow7-s1mAukbCGRvHwFf_-4" target="ow7-s1mAukbCGRvHwFf_-2">
          <mxGeometry relative="1" as="geometry">
            <mxPoint x="192" y="69" as="sourcePoint" />
            <mxPoint x="248" y="160" as="targetPoint" />
          </mxGeometry>
        </mxCell>
        <mxCell id="ow7-s1mAukbCGRvHwFf_-11" value="" style="endArrow=none;html=1;rounded=0;" edge="1" parent="1" source="ow7-s1mAukbCGRvHwFf_-1" target="ow7-s1mAukbCGRvHwFf_-2">
          <mxGeometry relative="1" as="geometry">
            <mxPoint x="295" y="110" as="sourcePoint" />
            <mxPoint x="270" y="160" as="targetPoint" />
          </mxGeometry>
        </mxCell>
        <mxCell id="ow7-s1mAukbCGRvHwFf_-12" value="id" style="ellipse;whiteSpace=wrap;html=1;align=center;fontStyle=4;fillColor=#f0a30a;fontColor=#000000;strokeColor=#BD7000;" vertex="1" parent="1">
          <mxGeometry x="520" y="80" width="100" height="40" as="geometry" />
        </mxCell>
        <mxCell id="ow7-s1mAukbCGRvHwFf_-13" value="Product" style="rounded=1;arcSize=10;whiteSpace=wrap;html=1;align=center;fillColor=#1ba1e2;fontColor=#ffffff;strokeColor=#006EAF;" vertex="1" parent="1">
          <mxGeometry x="560" y="150" width="100" height="40" as="geometry" />
        </mxCell>
        <mxCell id="ow7-s1mAukbCGRvHwFf_-14" value="description" style="ellipse;whiteSpace=wrap;html=1;align=center;" vertex="1" parent="1">
          <mxGeometry x="670" y="195" width="100" height="40" as="geometry" />
        </mxCell>
        <mxCell id="ow7-s1mAukbCGRvHwFf_-15" value="price" style="ellipse;whiteSpace=wrap;html=1;align=center;" vertex="1" parent="1">
          <mxGeometry x="650" y="80" width="80" height="40" as="geometry" />
        </mxCell>
        <mxCell id="ow7-s1mAukbCGRvHwFf_-16" value="name" style="ellipse;whiteSpace=wrap;html=1;align=center;" vertex="1" parent="1">
          <mxGeometry x="680" y="130" width="100" height="40" as="geometry" />
        </mxCell>
        <mxCell id="ow7-s1mAukbCGRvHwFf_-17" value="" style="endArrow=none;html=1;rounded=0;" edge="1" parent="1" source="ow7-s1mAukbCGRvHwFf_-15" target="ow7-s1mAukbCGRvHwFf_-13">
          <mxGeometry relative="1" as="geometry">
            <mxPoint x="750" y="120" as="sourcePoint" />
            <mxPoint x="910" y="120" as="targetPoint" />
          </mxGeometry>
        </mxCell>
        <mxCell id="ow7-s1mAukbCGRvHwFf_-18" value="" style="endArrow=none;html=1;rounded=0;" edge="1" parent="1" source="ow7-s1mAukbCGRvHwFf_-16" target="ow7-s1mAukbCGRvHwFf_-13">
          <mxGeometry relative="1" as="geometry">
            <mxPoint x="530" y="180" as="sourcePoint" />
            <mxPoint x="630" y="180" as="targetPoint" />
          </mxGeometry>
        </mxCell>
        <mxCell id="ow7-s1mAukbCGRvHwFf_-19" value="" style="endArrow=none;html=1;rounded=0;" edge="1" parent="1" source="ow7-s1mAukbCGRvHwFf_-14" target="ow7-s1mAukbCGRvHwFf_-13">
          <mxGeometry relative="1" as="geometry">
            <mxPoint x="715" y="110" as="sourcePoint" />
            <mxPoint x="690" y="160" as="targetPoint" />
          </mxGeometry>
        </mxCell>
        <mxCell id="ow7-s1mAukbCGRvHwFf_-20" value="" style="endArrow=none;html=1;rounded=0;" edge="1" parent="1" source="ow7-s1mAukbCGRvHwFf_-12" target="ow7-s1mAukbCGRvHwFf_-13">
          <mxGeometry relative="1" as="geometry">
            <mxPoint x="715" y="110" as="sourcePoint" />
            <mxPoint x="690" y="160" as="targetPoint" />
          </mxGeometry>
        </mxCell>
        <mxCell id="ow7-s1mAukbCGRvHwFf_-21" value="buy" style="shape=rhombus;perimeter=rhombusPerimeter;whiteSpace=wrap;html=1;align=center;fillColor=#e3c800;fontColor=#000000;strokeColor=#B09500;gradientColor=none;" vertex="1" parent="1">
          <mxGeometry x="373.5" y="140" width="120" height="60" as="geometry" />
        </mxCell>
        <mxCell id="ow7-s1mAukbCGRvHwFf_-22" value="" style="endArrow=none;html=1;rounded=0;" edge="1" parent="1" source="ow7-s1mAukbCGRvHwFf_-2" target="ow7-s1mAukbCGRvHwFf_-21">
          <mxGeometry relative="1" as="geometry">
            <mxPoint x="296" y="374" as="sourcePoint" />
            <mxPoint x="471" y="229.5" as="targetPoint" />
          </mxGeometry>
        </mxCell>
        <mxCell id="ow7-s1mAukbCGRvHwFf_-23" value="(1, N)" style="edgeLabel;html=1;align=center;verticalAlign=middle;resizable=0;points=[];" vertex="1" connectable="0" parent="ow7-s1mAukbCGRvHwFf_-22">
          <mxGeometry x="0.7071" y="2" relative="1" as="geometry">
            <mxPoint x="-11" y="-8" as="offset" />
          </mxGeometry>
        </mxCell>
        <mxCell id="ow7-s1mAukbCGRvHwFf_-24" value="" style="endArrow=none;html=1;rounded=0;" edge="1" parent="1" source="ow7-s1mAukbCGRvHwFf_-21" target="ow7-s1mAukbCGRvHwFf_-13">
          <mxGeometry relative="1" as="geometry">
            <mxPoint x="379" y="170" as="sourcePoint" />
            <mxPoint x="479" y="238" as="targetPoint" />
          </mxGeometry>
        </mxCell>
        <mxCell id="ow7-s1mAukbCGRvHwFf_-25" value="(1, N)" style="edgeLabel;html=1;align=center;verticalAlign=middle;resizable=0;points=[];" vertex="1" connectable="0" parent="ow7-s1mAukbCGRvHwFf_-24">
          <mxGeometry x="-0.2374" y="2" relative="1" as="geometry">
            <mxPoint y="-8" as="offset" />
          </mxGeometry>
        </mxCell>
        <mxCell id="ow7-s1mAukbCGRvHwFf_-26" value="id" style="ellipse;whiteSpace=wrap;html=1;align=center;fontStyle=4;fillColor=#f0a30a;fontColor=#000000;strokeColor=#BD7000;" vertex="1" parent="1">
          <mxGeometry x="334" y="235" width="100" height="40" as="geometry" />
        </mxCell>
        <mxCell id="ow7-s1mAukbCGRvHwFf_-27" value="" style="endArrow=none;html=1;rounded=0;" edge="1" parent="1" source="ow7-s1mAukbCGRvHwFf_-26" target="ow7-s1mAukbCGRvHwFf_-21">
          <mxGeometry relative="1" as="geometry">
            <mxPoint x="529" y="265" as="sourcePoint" />
            <mxPoint x="413" y="305" as="targetPoint" />
          </mxGeometry>
        </mxCell>
        <mxCell id="ow7-s1mAukbCGRvHwFf_-28" value="date" style="ellipse;whiteSpace=wrap;html=1;align=center;" vertex="1" parent="1">
          <mxGeometry x="450" y="235" width="100" height="40" as="geometry" />
        </mxCell>
        <mxCell id="ow7-s1mAukbCGRvHwFf_-29" value="" style="endArrow=none;html=1;rounded=0;" edge="1" parent="1" source="ow7-s1mAukbCGRvHwFf_-28" target="ow7-s1mAukbCGRvHwFf_-21">
          <mxGeometry relative="1" as="geometry">
            <mxPoint x="505" y="145" as="sourcePoint" />
            <mxPoint x="435.2184466019419" y="188.64077669902917" as="targetPoint" />
          </mxGeometry>
        </mxCell>
        <mxCell id="ow7-s1mAukbCGRvHwFf_-33" value="registration_date" style="ellipse;whiteSpace=wrap;html=1;align=center;" vertex="1" parent="1">
          <mxGeometry x="170" y="640" width="130" height="40" as="geometry" />
        </mxCell>
        <mxCell id="ow7-s1mAukbCGRvHwFf_-34" value="" style="endArrow=none;html=1;rounded=0;" edge="1" parent="1" source="ow7-s1mAukbCGRvHwFf_-33" target="GOUhQreRWFPhw6_hqKck-7">
          <mxGeometry relative="1" as="geometry">
            <mxPoint x="245" y="538" as="sourcePoint" />
            <mxPoint x="190" y="585" as="targetPoint" />
          </mxGeometry>
        </mxCell>
      </root>
    </mxGraphModel>
  </diagram>
</mxfile>
